<?xml version="1.0" standalone="no"?>
<!DOCTYPE svg PUBLIC "-//W3C//DTD SVG 20010904//EN"
 "http://www.w3.org/TR/2001/REC-SVG-20010904/DTD/svg10.dtd">
<svg version="1.0" xmlns="http://www.w3.org/2000/svg"
 width="1024.000000pt" height="1024.000000pt" viewBox="0 0 1024.000000 1024.000000"
 preserveAspectRatio="xMidYMid meet">

<g transform="translate(0.000000,1024.000000) scale(0.100000,-0.100000)"
fill="#000000" stroke="none">
<path d="M5201 7506 c-46 -26 -50 -47 -51 -274 l0 -213 -37 30 c-53 42 -135
76 -255 106 -57 15 -133 40 -170 57 -58 26 -70 29 -84 17 -48 -40 53 -232 178
-335 24 -20 44 -40 46 -44 3 -9 -37 -26 -51 -22 -5 1 -6 -2 -3 -7 6 -10 -22
-26 -39 -22 -5 2 -7 0 -4 -3 9 -9 -113 -126 -124 -119 -6 3 -7 1 -3 -6 4 -6
-4 -25 -18 -42 -14 -17 -26 -34 -26 -38 0 -4 -10 -18 -22 -31 -13 -14 -22 -26
-20 -27 1 -2 2 -13 1 -25 0 -13 -3 -17 -6 -10 -5 14 -33 17 -33 3 0 -5 -15
-12 -34 -15 -18 -4 -44 -16 -57 -27 -21 -18 -24 -19 -27 -5 -5 24 -42 20 -42
-4 0 -14 5 -18 17 -13 11 4 14 3 9 -5 -5 -8 -1 -10 10 -5 12 4 15 3 10 -5 -6
-10 4 -16 25 -14 6 1 7 -3 15 -71 6 -45 4 -50 -30 -83 -20 -19 -36 -43 -36
-53 0 -11 -7 -21 -15 -25 -8 -3 -21 -18 -27 -33 -7 -15 -17 -35 -23 -43 -7 -8
-17 -42 -23 -74 -12 -58 -28 -90 -41 -81 -4 2 -13 -24 -19 -58 -18 -95 -63
-126 -136 -92 -50 24 -64 58 -56 135 7 74 28 184 40 216 5 12 6 31 3 43 -3 12
-1 21 6 21 6 0 11 7 11 15 0 8 4 15 8 15 5 0 14 10 20 23 6 12 11 16 11 9 1
-19 21 -4 21 15 0 9 11 26 26 39 14 13 21 24 17 24 -4 0 5 9 21 19 16 11 33
27 38 35 5 9 21 16 36 16 15 0 34 5 42 11 12 8 9 10 -12 6 -20 -3 -29 2 -39
20 -11 20 -20 23 -68 23 -54 0 -57 2 -68 30 -9 24 -9 30 2 30 20 0 27 17 10
24 -18 7 -109 -110 -98 -127 3 -5 1 -7 -4 -4 -12 8 -102 -169 -132 -259 -62
-188 -73 -447 -30 -698 27 -152 130 -385 232 -521 67 -90 196 -226 267 -280
255 -195 567 -298 910 -298 462 -1 873 203 1152 573 136 182 226 383 264 591
24 132 24 376 0 494 -34 174 -116 359 -218 493 -156 203 -299 324 -528 445
-41 21 -76 40 -78 42 -2 1 10 24 27 49 16 26 35 70 41 98 11 43 10 52 -3 66
-15 14 -23 12 -94 -21 -43 -20 -117 -45 -165 -56 -96 -22 -194 -64 -248 -105
l-35 -27 -5 221 -5 222 -33 29 c-25 23 -42 29 -75 29 -23 -1 -53 -7 -66 -14z
m-566 -1356 c3 -5 13 -10 21 -10 34 0 81 -50 98 -104 21 -66 10 -119 -34 -170
-40 -45 -78 -59 -145 -54 -46 4 -62 10 -90 38 -19 19 -35 39 -35 46 0 7 -7 20
-16 29 -18 18 -14 60 13 133 20 55 71 83 175 101 4 0 10 -3 13 -9z"/>
<path d="M6592 4254 c-44 -31 -52 -63 -52 -219 0 -80 -2 -145 -4 -145 -3 0
-26 14 -53 30 -129 80 -310 54 -425 -62 -187 -191 -139 -513 95 -628 115 -56
232 -51 342 15 37 23 55 29 55 20 0 -8 10 -26 23 -40 47 -54 149 -38 181 30
14 29 16 95 16 490 l0 457 -34 34 c-28 28 -41 34 -78 34 -24 0 -54 -7 -66 -16z
m-139 -531 c93 -66 103 -184 23 -271 -33 -37 -71 -52 -131 -52 -64 0 -102 16
-138 59 -55 66 -60 151 -12 223 54 82 174 101 258 41z"/>
<path d="M2573 3961 c-43 -11 -119 -57 -137 -83 l-15 -21 -10 25 c-29 77 -136
104 -192 49 l-29 -29 0 -457 c0 -489 1 -504 51 -539 33 -23 91 -20 124 6 46
36 55 73 55 229 l0 141 48 -35 c64 -47 112 -60 191 -55 127 9 243 94 302 220
30 66 33 82 34 168 0 87 -3 101 -32 163 -43 90 -120 167 -196 195 -66 25 -148
35 -194 23z m102 -220 c123 -57 144 -209 41 -299 -44 -38 -70 -46 -140 -40
-116 10 -186 128 -142 242 20 52 51 83 103 101 52 19 91 18 138 -4z"/>
<path d="M3397 3960 c-115 -20 -231 -113 -285 -227 -24 -51 -27 -70 -27 -158
0 -88 3 -107 27 -157 35 -76 109 -153 183 -192 57 -30 65 -31 175 -31 104 0
121 3 172 27 159 74 258 254 229 414 -30 162 -154 288 -319 323 -59 12 -85 12
-155 1z m148 -219 c110 -50 144 -180 70 -276 -35 -47 -79 -68 -140 -68 -97 0
-165 63 -173 158 -2 30 -2 65 2 79 15 60 104 126 171 126 17 0 48 -9 70 -19z"/>
<path d="M5344 3960 c-109 -23 -234 -129 -272 -232 -76 -205 7 -418 197 -507
46 -21 71 -26 136 -26 82 0 114 10 182 55 l33 22 12 -27 c13 -30 55 -55 90
-55 36 0 88 37 104 75 18 44 21 603 3 638 -20 39 -51 57 -100 57 -46 0 -75
-17 -98 -57 -8 -15 -13 -16 -28 -5 -76 54 -180 79 -259 62z m173 -219 c114
-52 135 -215 37 -300 -71 -63 -158 -62 -231 2 -63 56 -80 134 -44 212 22 49
48 73 98 91 52 18 91 17 140 -5z"/>
<path d="M7291 3958 c-39 -11 -121 -64 -121 -78 0 -20 -16 -9 -28 20 -29 65
-132 82 -183 31 l-29 -29 0 -317 c0 -343 2 -359 55 -383 35 -16 70 -15 106 4
50 25 59 63 59 247 0 149 2 167 23 207 35 71 73 90 179 90 86 0 91 1 119 29
60 60 24 155 -69 181 -44 12 -65 12 -111 -2z"/>
<path d="M7872 3960 c-159 -24 -303 -176 -321 -339 -18 -163 72 -324 224 -396
78 -37 193 -46 281 -20 190 54 310 233 283 421 -32 227 -231 370 -467 334z
m143 -219 c107 -49 139 -158 78 -263 -32 -54 -76 -78 -148 -78 -53 0 -68 4
-103 30 -117 84 -99 251 33 311 51 23 89 23 140 0z"/>
<path d="M4024 3945 c-42 -29 -45 -55 -42 -384 l3 -313 33 -29 c59 -53 147
-31 177 43 12 30 15 82 15 236 0 195 0 199 23 220 30 28 68 28 95 -1 21 -22
22 -32 22 -225 0 -226 7 -260 59 -286 38 -20 64 -20 101 -1 58 30 60 40 60
271 0 199 1 213 21 238 15 19 30 26 54 26 24 0 39 -7 54 -26 20 -25 21 -39 21
-236 0 -231 5 -255 59 -278 60 -25 125 7 150 73 18 45 14 462 -4 523 -29 99
-112 163 -209 164 -55 0 -130 -31 -149 -61 -16 -25 -25 -24 -48 5 -59 75 -224
73 -294 -4 -17 -18 -18 -18 -54 21 -33 34 -44 39 -82 39 -25 0 -54 -7 -65 -15z"/>
</g>
</svg>
